<mxfile host="app.diagrams.net" modified="2022-08-25T02:18:03.961Z" agent="5.0 (Macintosh; Intel Mac OS X 10_15_7) AppleWebKit/537.36 (KHTML, like Gecko) Chrome/104.0.0.0 Safari/537.36" etag="C-dzXKnZo9-V2qnzFcw2" version="20.2.6" type="github">
  <diagram id="hcffSt5Izr7iK_8mQjAw" name="第 1 页">
    <mxGraphModel dx="1426" dy="623" grid="1" gridSize="10" guides="1" tooltips="1" connect="1" arrows="1" fold="1" page="1" pageScale="1" pageWidth="827" pageHeight="1169" math="0" shadow="0">
      <root>
        <mxCell id="0" />
        <mxCell id="1" parent="0" />
        <mxCell id="GM94ZRV5pSA6KBNRUPQd-1" value="&lt;span style=&quot;font-size: 24px;&quot;&gt;结算&lt;/span&gt;" style="rounded=0;whiteSpace=wrap;html=1;strokeColor=#97D077;" vertex="1" parent="1">
          <mxGeometry x="340" y="300" width="120" height="50" as="geometry" />
        </mxCell>
        <mxCell id="GM94ZRV5pSA6KBNRUPQd-2" value="&lt;span style=&quot;font-size: 24px;&quot;&gt;产品名称&lt;/span&gt;" style="ellipse;whiteSpace=wrap;html=1;strokeColor=#97D077;" vertex="1" parent="1">
          <mxGeometry x="390" y="150" width="130" height="50" as="geometry" />
        </mxCell>
        <mxCell id="GM94ZRV5pSA6KBNRUPQd-3" value="&lt;span style=&quot;font-size: 24px;&quot;&gt;用户id&lt;br&gt;&lt;/span&gt;" style="ellipse;whiteSpace=wrap;html=1;strokeColor=#97D077;" vertex="1" parent="1">
          <mxGeometry x="520" y="190" width="130" height="50" as="geometry" />
        </mxCell>
        <mxCell id="GM94ZRV5pSA6KBNRUPQd-4" value="&lt;span style=&quot;font-size: 24px;&quot;&gt;产品id&lt;/span&gt;" style="ellipse;whiteSpace=wrap;html=1;strokeColor=#97D077;" vertex="1" parent="1">
          <mxGeometry x="240" y="150" width="130" height="50" as="geometry" />
        </mxCell>
        <mxCell id="GM94ZRV5pSA6KBNRUPQd-5" value="&lt;span style=&quot;font-size: 24px;&quot;&gt;父结算批次id&lt;/span&gt;" style="ellipse;whiteSpace=wrap;html=1;strokeColor=#97D077;" vertex="1" parent="1">
          <mxGeometry x="105" y="200" width="160" height="70" as="geometry" />
        </mxCell>
        <mxCell id="GM94ZRV5pSA6KBNRUPQd-6" value="&lt;span style=&quot;font-size: 24px;&quot;&gt;是否结算&lt;/span&gt;" style="ellipse;whiteSpace=wrap;html=1;strokeColor=#97D077;" vertex="1" parent="1">
          <mxGeometry x="90" y="290" width="130" height="50" as="geometry" />
        </mxCell>
        <mxCell id="GM94ZRV5pSA6KBNRUPQd-7" value="&lt;span style=&quot;font-size: 24px;&quot;&gt;结算批次id&lt;/span&gt;" style="ellipse;whiteSpace=wrap;html=1;strokeColor=#97D077;" vertex="1" parent="1">
          <mxGeometry x="120" y="360" width="130" height="50" as="geometry" />
        </mxCell>
        <mxCell id="GM94ZRV5pSA6KBNRUPQd-8" value="&lt;font style=&quot;font-size: 24px;&quot;&gt;结算时间&lt;/font&gt;" style="ellipse;whiteSpace=wrap;html=1;strokeColor=#97D077;" vertex="1" parent="1">
          <mxGeometry x="210" y="420" width="130" height="50" as="geometry" />
        </mxCell>
        <mxCell id="GM94ZRV5pSA6KBNRUPQd-9" value="&lt;span style=&quot;font-size: 24px;&quot;&gt;结算用户id&lt;/span&gt;" style="ellipse;whiteSpace=wrap;html=1;strokeColor=#97D077;" vertex="1" parent="1">
          <mxGeometry x="350" y="450" width="130" height="50" as="geometry" />
        </mxCell>
        <mxCell id="GM94ZRV5pSA6KBNRUPQd-10" value="&lt;span style=&quot;font-size: 24px;&quot;&gt;结算量&lt;/span&gt;" style="ellipse;whiteSpace=wrap;html=1;strokeColor=#97D077;" vertex="1" parent="1">
          <mxGeometry x="490" y="410" width="130" height="50" as="geometry" />
        </mxCell>
        <mxCell id="GM94ZRV5pSA6KBNRUPQd-11" value="&lt;span style=&quot;font-size: 24px;&quot;&gt;结算分佣&lt;/span&gt;" style="ellipse;whiteSpace=wrap;html=1;strokeColor=#97D077;" vertex="1" parent="1">
          <mxGeometry x="580" y="260" width="130" height="50" as="geometry" />
        </mxCell>
        <mxCell id="GM94ZRV5pSA6KBNRUPQd-12" value="&lt;span style=&quot;font-size: 24px;&quot;&gt;结算金额&lt;/span&gt;" style="ellipse;whiteSpace=wrap;html=1;strokeColor=#97D077;" vertex="1" parent="1">
          <mxGeometry x="570" y="340" width="130" height="50" as="geometry" />
        </mxCell>
      </root>
    </mxGraphModel>
  </diagram>
</mxfile>
